<svg width="275" height="256" viewBox="0 0 275 256" fill="none" xmlns="http://www.w3.org/2000/svg">
<path d="M43.3192 201.911C43.3192 201.911 29.5231 123.869 32.3928 100.915C35.2625 77.9604 117.271 78.9983 126.702 82.5567C136.133 86.1151 152.031 126.524 153.082 133.21C154.132 139.895 162.607 189.821 165.746 191.586C168.885 193.352 168.104 199.997 172.105 201.183C176.106 202.369 194.456 202.369 200.479 203.515C206.501 204.661 212.806 219.919 212.806 219.919H131.431" fill="#962F45"/>
<path d="M157.124 138.022C157.124 138.022 160.276 145.476 160.088 146.487C159.899 147.498 148.474 144.694 148.474 144.694" fill="#FFB583"/>
<path d="M178.545 140.407C178.545 140.407 178.384 167.473 178.303 174.792C178.222 182.111 172.388 187.34 171.715 189.214C171.041 191.087 170.947 193.042 168.939 193.406C166.573 193.676 164.188 193.104 162.203 191.788C159.845 190.36 153.486 178.121 153.095 182.892C153.095 183.054 159.01 162.971 158.942 161.623C158.875 160.275 165.342 141.324 165.531 139.491" fill="#FFB583"/>
<path d="M180.566 139.235C180.566 139.235 179.381 141.931 174.409 142.793C169.438 143.656 164.884 138.885 165.261 136.647C165.638 134.41 168.346 134.194 168.346 134.194" fill="#FF7B59"/>
<path d="M134.017 113.099C134.61 113.18 143.852 117.453 146.022 119.96C148.191 122.467 156.315 137.482 156.315 137.833C156.315 138.183 151.613 145.597 151.613 145.597L142.087 147.416L134.004 113.099" fill="#FFB583"/>
<path d="M158.699 135.286C158.699 135.286 161.892 140.03 164.088 140.677C166.285 141.324 169.1 140.853 169.289 139.801C169.478 138.75 167.942 135.852 167.942 135.852L160.586 129.018L158.134 131.984" fill="#DB8F5A"/>
<path d="M184.54 128.506C184.54 128.506 183.368 122.885 181.091 122.535C178.814 122.184 174.49 120.324 171.849 119.974C169.451 119.65 167.107 118.37 164.466 118.882C161.825 119.394 160.33 119.475 159.077 120.958C157.824 122.44 155.143 134.638 152.704 138.763C150.266 142.887 152.785 142.429 154.052 142.389C155.318 142.348 158.215 137.644 159.872 135.447C160.781 134.274 161.55 132.999 162.162 131.646C162.601 133.602 163.671 135.359 165.207 136.647C167.484 138.129 170.138 137.496 171.243 137.496C172.347 137.496 173.789 140.556 177.157 139.814C180.525 139.073 180.889 140.906 181.832 140.003C182.775 139.1 183.732 140.973 184.958 139.477C186.184 137.981 187.504 133.061 184.54 128.506Z" fill="#FFCBA4"/>
<path d="M165.207 126.201C166.069 125.878 167.416 128.398 169.72 127.832C171.127 127.479 172.56 127.236 174.004 127.104C175.423 128.097 177.005 128.832 178.679 129.274C180.566 129.477 178.814 129.733 179.542 130.77C180.269 131.808 181.468 131.31 184.042 132.347C185.173 132.806 185.847 133.358 185.901 135.879C185.968 137.147 185.639 138.406 184.958 139.478C183.732 140.974 182.789 139.114 181.832 140.003C180.875 140.893 180.485 139.06 177.157 139.815C173.829 140.57 172.347 137.496 171.242 137.496C170.138 137.496 167.484 138.13 165.207 136.647C163.698 135.371 162.644 133.64 162.202 131.714C162.202 131.714 164.291 126.538 165.207 126.201Z" fill="#FFB583"/>
<path d="M153.082 190.4C153.082 190.4 163.725 202.234 164.871 203.879C166.016 205.523 171.513 208.65 172.954 209.001C174.396 209.351 178.492 208.65 180.782 209.001C183.339 209.481 185.867 210.107 188.354 210.874C189.377 211.211 210.166 214.284 213.952 215.309C215.101 215.669 216.163 216.264 217.072 217.055C217.981 217.846 218.717 218.816 219.233 219.905H138.976L133.317 208.61" fill="#042759"/>
<path d="M179.381 139.612C180.58 138.911 181.671 134.49 182.075 135.892C181.914 135.352 180.93 139.706 180.728 140.043L179.381 139.612Z" fill="#DB8F5A"/>
<path d="M177.211 139.815L178.249 132.887L178.101 132.051L175.46 139.869L177.211 139.815Z" fill="#DB8F5A"/>
<path d="M171.296 137.495C171.635 136.141 171.896 134.768 172.078 133.384C172.173 131.622 172.119 129.854 171.916 128.101L170.636 133.627L169.855 137.67L171.296 137.495Z" fill="#DB8F5A"/>
<path d="M87.456 81.8425C88.7609 83.0094 89.8747 84.3738 90.7568 85.8861C91.4439 87.5979 93.613 92.1807 93.613 92.1807L92.1445 80.2655" fill="#5A489B"/>
<path d="M109.834 30.7446C109.834 30.7446 123.886 37.484 126.217 39.6675C128.548 41.8511 134.934 50.4505 136.173 54.4942C137.413 58.5378 140.296 81.4517 140.013 86.5871C139.706 90.7591 139.007 94.8928 137.925 98.9336C137.197 102.074 133.977 107.803 133.115 110.175C132.253 112.547 128.063 116.604 128.063 116.604L110.265 115.566L105.146 99.1897" fill="#5A489B"/>
<path d="M123.994 111.212C123.657 110.134 129.585 111.307 133.182 110.363C135.491 109.748 137.744 108.941 139.919 107.95C139.919 107.95 142.519 120.216 136.402 126.376" fill="#73CEC6"/>
<path d="M79.9377 114.864C79.9377 114.864 78.6982 115.444 72.0965 121.051C69.631 123.14 58.745 129.327 59.1627 131.322C59.5804 133.317 83.3328 179.994 84.9899 183.606C86.6471 187.218 88.897 198.338 89.1665 201.924C89.4359 205.509 88.9509 204.431 89.1665 208.057C89.1665 208.987 89.0722 207.693 88.8566 206.399C88.6411 205.105 88.3177 203.703 88.1156 204.956C87.7923 207.059 89.7458 210.348 91.4838 209C96.9807 205.078 111.127 210.024 114.67 210.954C119.494 212.208 130.689 213.812 139.568 210.469C148.447 207.127 151.788 195.467 152.664 192.543C153.539 189.618 152.219 175.64 151.384 172.5C150.952 170.882 151.464 172.109 151.882 173.362C152.3 174.616 152.596 175.735 151.882 174.521C150.535 172.001 148.514 149.087 147.84 145.609C147.167 142.132 148.716 134.597 145.765 130.783C142.815 126.968 138.625 126.146 135.674 120.162C133.932 116.38 131.073 113.224 127.483 111.117C126.136 110.443 117.836 109.109 117.836 109.109L79.9377 114.864Z" fill="#73CEC6"/>
<path d="M83.3197 140.474C83.3197 140.474 77.9306 128.195 72.5415 126.995C67.1524 125.796 57.9101 130.365 56.0778 130.446C54.2455 130.527 57.3173 145.448 60.7529 148.251" fill="#00A698"/>
<path d="M89.1671 201.925C88.8977 198.339 86.6477 187.206 84.9906 183.607C84.3574 182.259 80.5176 174.59 75.9908 165.559C83.4816 168.106 96.4963 172.15 102.505 171.139C111.33 169.657 127.888 163.456 130.879 162.675C133.87 161.893 138.545 163.011 142.519 161.637C144.58 160.922 145.577 159.21 149.256 156.879C150.118 164.413 151.155 173.053 151.95 174.59C153.297 177.097 151.115 171.436 151.95 174.59C152.785 177.744 153.54 189.686 152.664 192.611C151.788 195.536 148.528 207.195 139.609 210.538C130.69 213.88 119.535 212.276 114.711 211.023C111.168 210.093 97.8301 207.195 91.1476 206.885C89.0324 206.79 87.8333 207.06 88.1567 204.957C88.5339 202.531 89.8003 208.731 89.6656 206.831C89.4096 203.151 89.4231 205.51 89.1671 201.925Z" fill="#00A698"/>
<path d="M77.4587 132.064C77.4587 132.064 72.8106 127.225 69.0517 130.231C65.2928 133.237 60.1192 134.491 59.9172 138.453C59.7151 142.416 62.1267 177.892 61.5743 180.898C61.0219 183.904 61.7225 196.452 61.6956 197.072C61.6686 197.692 78.5365 196.479 80.8942 194.377C83.2519 192.274 82.1472 182.906 81.7565 173.714C81.3658 164.521 83.7908 156.191 84.451 147.659C85.1112 139.127 77.4587 132.064 77.4587 132.064Z" fill="#FFCBA4"/>
<path d="M135.014 174.387L135.998 145.071C136.013 144.654 136.176 144.256 136.457 143.947C136.738 143.639 137.12 143.44 137.534 143.386L160.249 140.569C160.552 140.529 160.86 140.571 161.141 140.689C161.423 140.808 161.668 140.999 161.852 141.243L162.768 142.443L161.165 178.997C161.142 179.595 160.914 180.167 160.519 180.616C160.123 181.066 159.586 181.365 158.996 181.464L151.357 182.812" fill="#444560"/>
<path d="M91.0261 80.2921C91.0261 80.2921 94.4078 92.423 92.4677 98.4345C90.5276 104.446 79.938 114.865 79.938 114.865C79.938 114.865 90.3121 119.717 97.1023 126.363C103.893 133.008 111.464 141.957 122.094 135.622C132.724 129.287 126.783 112.709 123.994 111.212C120.47 109.622 117.525 106.981 115.56 103.651C113.094 99.4185 115.56 92.7061 115.56 92.7061" fill="#FFCBA4"/>
<path d="M125.799 49.1159C125.799 49.1159 129.207 62.1094 129.275 70.4932C129.342 78.877 123.441 94.755 119.844 96.4668C116.247 98.1786 105.927 96.0354 103.232 94.5932C100.537 93.151 92.4538 86.1286 91.6589 84.8076C90.8641 83.4867 86.4854 70.291 86.4854 70.291C86.4854 70.291 90.7832 68.0805 95.9163 59.7102C101.049 51.3399 110.103 45.1397 115.277 43.3335C115.277 43.3335 120.625 48.0241 125.799 49.1159Z" fill="#FCAA72"/>
<path d="M107.759 122.885C115.748 124.448 117.635 126.349 119.709 126.066C121.259 125.837 125.098 120.674 127.146 116.954C128.911 122.777 129.113 131.444 122.094 135.622C111.464 141.957 103.892 132.926 97.1021 126.362C94.6437 124.02 91.9686 121.917 89.1128 120.081C94.2459 120.742 102.559 121.86 107.759 122.885Z" fill="#FFB583"/>
<path d="M148.892 191.249C148.892 191.249 145.685 195.657 136.268 199.714C126.85 203.771 114.011 205.847 114.011 205.847C114.011 205.847 125.328 209.769 134.934 205.375C144.54 200.981 149.107 192.489 148.892 191.249Z" fill="#73CEC6"/>
<path d="M43.319 201.911C43.319 201.911 123.239 205.187 131.431 207.869C139.622 210.551 140.565 220 140.565 220H52.9925C52.9925 220 52.5883 212.883 43.319 201.911Z" fill="#D1435B"/>
<path d="M80.8277 192.907C80.8277 192.907 108.851 185.602 114.658 181.774C120.465 177.946 126.393 169.185 128.131 168.12C129.868 167.055 134.961 166.327 134.961 166.327C134.961 166.327 134.665 173.767 135.069 174.414C135.473 175.061 147.531 174.819 150.28 174.104C153.028 173.39 162.405 170.425 162.634 170.735C162.715 171.461 162.582 172.194 162.252 172.846C161.922 173.497 161.408 174.038 160.775 174.401C160.775 174.401 162.58 174.307 162.257 175.857C161.934 177.407 159.266 178.552 158.498 178.808C157.73 179.065 158.229 180.156 156.315 181.221C154.402 182.286 153.5 185.143 151.775 185.966C150.051 186.788 145.403 189.12 141.9 189.295C138.397 189.47 136.955 189.12 135.406 189.295C133.856 189.47 121.138 193.339 119.643 193.81C118.147 194.282 91.1074 213.503 83.8187 215.7C76.5299 217.897 66.3041 217.978 64.7547 216.212C62.9203 213.406 61.6779 210.255 61.1036 206.952C61.1036 205.604 61.7638 197.517 61.7369 195.347C61.5706 193.908 61.853 192.454 62.5452 191.182C62.9898 190.791 80.8277 192.907 80.8277 192.907Z" fill="#FFB583"/>
<path d="M61.2384 204.741C63.4746 205.771 65.8555 206.453 68.2981 206.763C72.1513 207.019 77.217 204.673 80.6795 202.503C84.142 200.333 89.0057 199.565 99.0833 195.643C106.399 192.812 113.405 184.55 116.706 180.21C121.798 175.964 126.595 169.049 128.077 168.079C129.761 167.027 134.907 166.286 134.907 166.286C134.907 166.286 134.611 173.726 135.015 174.373C135.419 175.02 147.477 174.778 150.226 174.063C152.974 173.349 162.351 170.384 162.58 170.694C162.846 171.322 162.878 172.025 162.67 172.676C162.463 173.326 162.029 173.88 161.449 174.238C161.449 174.238 162.526 174.238 162.203 175.815C161.88 177.392 159.212 178.511 158.444 178.767C157.676 179.023 158.175 180.115 156.262 181.18C154.348 182.245 153.446 185.102 151.721 185.925C149.997 186.747 145.349 189.079 141.846 189.254C138.343 189.429 136.901 189.079 135.352 189.254C133.803 189.429 121.084 193.297 119.589 193.769C118.093 194.241 91.1074 213.502 83.8187 215.699C76.5299 217.896 66.3041 217.977 64.7547 216.211C62.9203 213.405 61.6779 210.254 61.1036 206.951C61.1171 206.601 61.171 205.846 61.2384 204.741Z" fill="#FFCBA4"/>
<path d="M161.407 174.454C158.107 175.835 154.701 176.949 151.222 177.784C148.163 178.201 139.77 178.902 139.77 178.902C139.77 178.902 148.608 179.603 151.181 178.902C154.671 177.614 158.085 176.129 161.407 174.454V174.454Z" fill="#DB8F5A"/>
<path d="M127.025 54.3317C127.025 54.3317 115.897 52.8221 112.663 53.6712C109.43 54.5204 101.885 62.7155 97.4392 63.8881C92.9932 65.0608 90.0966 65.8156 90.0966 65.8156L101.252 48.6167L118.052 42.5917L125.382 47.5519" fill="#FCAA72"/>
<path d="M114.806 53.1057C115.598 55.5659 116.255 58.0677 116.773 60.5999C117.433 64.0504 116.948 66.7057 117.81 69.3476C118.872 71.8985 120.161 74.3481 121.664 76.6665C121.664 76.6665 118.888 78.9175 117.325 80.0093C115.762 81.101 116.625 88.8648 117.662 92.1401C118.7 95.4155 119.912 96.3994 119.912 96.3994C119.912 96.3994 117.527 98.3269 109.942 97.0329C102.357 95.739 93.9905 88.2583 93.9905 88.2583C93.1447 87.1327 92.3665 85.958 91.6597 84.7403C91.2421 83.8372 86.8365 75.1704 86.8365 75.1704C86.8365 75.1704 93.4381 58.632 93.8019 58.632C94.1657 58.632 102.99 53.7122 102.99 53.7122" fill="#FFCBA4"/>
<path d="M158.471 178.782C155.78 180.026 153.028 181.133 150.225 182.098C146.504 182.626 142.758 182.964 139.003 183.109C139.003 183.109 147.639 183.783 150.36 183.109C153.082 182.435 158.471 178.782 158.471 178.782Z" fill="#DB8F5A"/>
<path d="M154.307 183.284C154.307 183.284 149.026 185.306 147.49 185.71C145.954 186.114 139.663 187.139 139.663 187.139C142.238 187.354 144.831 187.181 147.356 186.626C149.777 185.744 152.106 184.625 154.307 183.284V183.284Z" fill="#DB8F5A"/>
<path d="M118.47 178.633C117.544 180.795 117.085 183.128 117.123 185.48C117.776 188.157 118.948 190.681 120.572 192.907C120.893 193.18 121.295 193.341 121.717 193.365L123.657 192.502C123.657 192.502 123.36 194.322 122.795 194.592C121.347 195.376 119.815 195.991 118.227 196.425C117.581 196.344 113.188 190.683 112.515 189.092C111.925 186.638 111.816 184.094 112.191 181.598C112.501 180.884 116.92 177.945 117.581 177.649C118.262 177.448 118.974 177.371 119.682 177.42" fill="#FFB54D"/>
<path d="M137.52 174.725L138.396 146.81C138.409 146.392 138.571 145.993 138.853 145.684C139.134 145.375 139.517 145.177 139.932 145.125L162.836 142.43L161.919 141.23C161.736 140.986 161.491 140.794 161.209 140.676C160.927 140.558 160.619 140.516 160.316 140.556L137.601 143.373C137.187 143.427 136.806 143.626 136.525 143.934C136.244 144.243 136.081 144.641 136.065 145.058L135.082 174.374L137.52 174.725Z" fill="#68697F"/>
<path d="M147.989 147.658L141.374 148.386C141.163 148.412 140.969 148.514 140.828 148.673C140.686 148.832 140.608 149.036 140.606 149.249V151.648C140.605 151.773 140.631 151.896 140.681 152.01C140.732 152.124 140.806 152.226 140.899 152.309C140.992 152.392 141.102 152.454 141.221 152.491C141.34 152.528 141.466 152.539 141.589 152.524L148.218 151.742C148.429 151.716 148.623 151.614 148.764 151.456C148.905 151.297 148.984 151.092 148.986 150.88V148.534C148.987 148.408 148.961 148.284 148.91 148.168C148.858 148.053 148.783 147.951 148.688 147.868C148.594 147.784 148.482 147.723 148.361 147.687C148.241 147.65 148.114 147.641 147.989 147.658V147.658Z" fill="#8F90A0"/>
<path d="M87.6312 75.1701C87.6312 75.1701 87.8063 70.6951 86.486 70.2908C85.1657 69.8864 81.299 67.9859 80.7601 68.2824C80.2212 68.579 80.2616 75.5879 81.555 76.774C82.8096 77.7736 84.1641 78.6408 85.5968 79.362C85.5968 79.362 86.6611 82.1386 87.6042 82.3408C88.5473 82.5429 90.7299 82.7721 90.7299 82.7721" fill="#FFB583"/>
<path d="M125.799 49.1156C125.799 49.1156 116.948 46.4872 114.873 46.5411C112.798 46.5951 106.964 49.1156 105.765 50.9083C104.566 52.7009 97.1428 61.853 95.068 65.1823C93.3574 67.7873 91.35 70.1847 89.0861 72.326C88.5472 72.7978 84.6131 72.326 83.5488 71.3286C82.4845 70.3311 80.7599 68.2824 80.7599 68.2824L80.5174 72.7843C80.5174 72.7843 78.9815 64.3196 78.7525 63.0796C78.5235 61.8395 77.3109 55.2619 75.9367 52.2966C74.5625 49.3312 83.0907 37.3891 89.1535 33.6689C95.2162 29.9488 105.442 29.5579 108.756 30.3262C112.071 31.0945 120.882 35.2325 122.377 36.0008C124.387 37.2146 126.009 38.9776 127.052 41.0822C127.968 43.2658 128.009 47.916 125.799 49.1156Z" fill="#A59BC8"/>
<path d="M90.9453 69.0512C91.1598 72.1391 91.5466 75.2125 92.104 78.2572C92.7175 79.521 93.453 80.7219 94.3001 81.8425C94.3001 81.8425 89.6654 80.0634 88.1969 77.6507C86.7284 75.238 84.5593 70.7226 84.5593 70.7226" fill="#5A489B"/>
<path d="M125.799 49.1156C125.799 49.1156 129.396 46.649 132.926 48.3473C132.926 48.3473 127.456 38.9796 122.377 36.0547" fill="#A59BC8"/>
<path d="M104.324 47.1072C104.324 47.1072 95.4457 51.6495 91.835 52.2695C88.2243 52.8896 86.7962 48.509 85.4759 48.2259C84.1555 47.9429 82.0807 47.7811 81.6766 46.7972C81.3131 45.0742 81.0833 43.3258 80.9894 41.5674C80.9894 41.5674 82.1346 44.061 83.2124 44.4249C84.2903 44.7888 89.2348 43.6701 89.2348 43.6701C89.8549 44.5699 90.681 45.3084 91.6441 45.8242C92.6073 46.34 93.6797 46.6181 94.772 46.6354C98.7735 46.7972 104.324 47.1072 104.324 47.1072Z" fill="#E1DDEC"/>
<path d="M153.082 186.977C153.082 186.977 156.275 194.067 159.091 197.288C161.907 200.51 164.79 204.028 164.79 204.028C164.79 204.028 158.053 210.187 154.86 211.023C151.667 211.859 139.313 215.646 139.313 215.646L133.277 208.759" fill="#00A698"/>
<path d="M59.5671 132.307C59.5671 132.307 59.0955 137.577 61.1164 135.623C63.1374 133.668 67.0579 132.32 74.8991 134.773C82.7402 137.227 83.6429 149.236 83.6429 149.236C83.6429 149.236 84.0066 139.572 81.9183 135.07C79.8301 130.568 74.0233 125.15 71.1402 125.972C68.257 126.794 56.0776 130.447 56.0776 130.447L59.5671 132.307Z" fill="#73CEC6"/>
<path d="M112.865 97.4768C112.865 97.4768 106.088 95.3202 101.885 93.7836C97.6812 92.2471 93.0196 84.9685 93.0196 84.9685C93.0196 84.9685 96.4821 93.1636 101.103 95.6437C105.724 98.1238 112.865 97.4768 112.865 97.4768Z" fill="#FFB583"/>
<path d="M127.874 60.2763C126.206 59.6264 124.477 59.1433 122.714 58.8341C121.124 58.7398 119.265 59.1711 119.076 58.7128C118.887 58.2545 118.901 58.4163 119.871 57.7019C121.573 56.9465 123.497 56.8599 125.26 57.4593C125.919 57.6307 126.515 57.987 126.978 58.4861C127.441 58.9852 127.752 59.6064 127.874 60.2763V60.2763Z" fill="#5A489B"/>
<path d="M101.225 64.4276C102.874 63.006 104.656 61.7466 106.547 60.6671C108.312 59.9122 110.588 59.6427 110.588 59.0496C110.588 58.4565 110.669 58.6318 109.241 58.2139C107.813 57.7961 104.66 58.807 103.003 60.1279C102.333 60.6051 101.811 61.2615 101.496 62.022C101.182 62.7824 101.088 63.6162 101.225 64.4276Z" fill="#5A489B"/>
<path d="M99.5811 58.9277C99.5811 58.9277 105.94 50.9482 112.569 49.1151C119.197 47.282 121.622 50.9348 123.509 50.773C125.395 50.6113 126.702 48.212 126.702 48.212C126.702 48.212 122.983 44.101 122.188 43.5888C121.393 43.0766 115.923 43.791 113.741 44.5728C111.558 45.3546 109.861 46.5272 108.796 46.8103C107.732 47.0933 104.755 50.1934 103.017 51.2043" fill="#5A489B"/>
<path d="M97.2239 76.6523C97.5877 74.9135 101.616 74.9944 106.008 75.0753C110.4 75.1561 107.45 79.5637 103.435 80.4668C99.42 81.3698 96.7119 79.0515 97.2239 76.6523Z" fill="#FFCBA4"/>
<path d="M71.0863 126.012C71.0863 126.012 68.9172 124.852 67.4622 124.259C66.0071 123.666 59.0552 129.556 59.0552 129.556L71.0863 126.012Z" fill="#73CEC6"/>
<path d="M134.098 50.2475C135.934 53.3612 137.382 56.6882 138.409 60.1543C139.757 65.2493 140.592 78.1215 140.484 87.1118C140.376 96.1022 135.567 104.877 135.567 104.877C138.491 94.2327 139.279 83.1143 137.884 72.1639C135.567 54.4528 134.098 50.2475 134.098 50.2475Z" fill="#5A489B"/>
<path d="M90.8646 70.3858C87.536 68.8591 84.6278 66.5463 82.3903 63.6464C79.9005 59.7648 77.6899 55.7109 75.7752 51.5155C75.7752 51.5155 74.2123 60.8428 77.3784 66.8543C80.5445 72.8659 80.5715 73.4859 80.5715 73.4859C80.5715 73.4859 81.8514 70.4666 82.1612 70.6823C83.1378 71.4597 84.0732 72.2875 84.9636 73.1624C85.26 73.5533 87.3213 81.2496 94.3002 81.9236C94.3002 81.9236 91.2553 74.8203 91.0532 70.3858" fill="#5A489B"/>
<path d="M164.169 135.663C164.169 135.663 164.762 132.442 164.83 131.619C164.815 131.266 164.72 130.921 164.552 130.611C164.384 130.3 164.147 130.032 163.86 129.827L162.903 129.988C162.903 129.988 161.003 133.924 160.451 134.692C159.899 135.461 163.334 138.359 163.334 138.359" fill="#DB8F5A"/>
<path d="M156.759 139.868C156.759 139.868 155.048 140.461 154.199 139.868C153.686 139.519 153.195 139.136 152.731 138.723C152.193 139.621 151.789 140.592 151.532 141.607L155.776 141.149L156.759 139.868Z" fill="#FFE7D7"/>
<path d="M75.9363 52.3505C75.9363 52.3505 83.8717 67.7028 93.5856 67.312C94.8837 69.4473 95.7234 71.8297 96.0511 74.3074C96.4137 76.7328 97.3363 79.0403 98.7456 81.0468C98.7456 81.0468 94.2727 78.7959 93.6933 76.1945C93.114 73.5931 88.8836 72.973 88.8836 72.973C88.8836 72.973 79.0485 64.1445 78.7521 63.0257" fill="#5A489B"/>
<path d="M121.083 49.2498C121.083 49.2498 118.807 45.0984 108.621 47.4706C98.4358 49.8429 95.2832 63.6451 91.4435 65.2491C87.6037 66.8531 83.023 64.4269 83.023 64.4269L93.5722 68.6053C93.5722 68.6053 98.1664 61.7311 101.952 56.3262C105.738 50.9212 117.271 48.2254 121.083 49.2498Z" fill="#5A489B"/>
<path d="M105.091 84.5383C104.849 84.6327 107.261 88.582 108.945 89.3098C110.629 90.0377 114.469 89.3098 115.519 88.0698C116.57 86.8297 116.638 85.5762 116.449 85.4549C112.683 84.943 108.891 84.6371 105.091 84.5383V84.5383Z" fill="white"/>
<path d="M135.688 133.695C134.544 133.884 133.417 134.168 132.32 134.544C128.885 135.798 126.365 141.405 126.662 143.036C127.622 140.761 129.193 138.797 131.202 137.361C134.085 135.703 140 133.318 140 133.318C138.554 133.342 137.113 133.477 135.688 133.722" fill="#D0EEEC"/>
<path d="M139.928 132.985L125.342 135.455L126.629 143.057L141.214 140.586L139.928 132.985Z" fill="#D0EEEC"/>
<path d="M56.0776 130.446C59.3562 131.532 62.8582 131.759 66.2496 131.106C71.7734 129.988 83.6698 132.926 83.6294 149.276C83.6294 149.276 82.6189 140.177 77.4858 140.043C72.3527 139.908 72.6087 142.038 66.9636 140.353C61.3185 138.668 57.4249 135.756 56.0776 130.446Z" fill="#0770E3"/>
<path d="M139.851 107.95C139.851 107.95 143.826 111.212 144.068 114.124C144.311 117.035 142.937 116.819 142.721 118.828C142.506 120.836 143.26 122.871 143.125 124.219C142.713 125.577 141.967 126.809 140.956 127.805L133.897 125.109" fill="#73CEC6"/>
<path d="M97.3581 63.0389C97.3581 63.0389 95.8222 65.7347 96.442 67.4734C97.0617 69.2122 97.7893 69.5761 97.7893 70.6274C97.718 71.4757 97.5875 72.318 97.3986 73.148C97.04 72.1893 96.5552 71.2827 95.957 70.4522C95.2429 69.6435 94.2864 69.32 93.5992 68.5517C93.2322 68.1755 92.9678 67.7115 92.8313 67.2038" fill="#5A489B"/>
<path d="M60.7127 156.407C60.7127 156.407 60.5914 153.576 69.7394 151.635C78.8874 149.694 83.5894 150.907 83.5894 150.907C83.5894 150.907 82.9831 141.364 79.9922 137.711C77.0012 134.059 59.9986 135.124 59.9986 135.124C59.9986 135.124 58.5301 143.278 60.7127 156.407Z" fill="#FFB583"/>
<path d="M56.0776 130.446C59.3562 131.532 62.8582 131.759 66.2496 131.106C71.7734 129.988 88.008 130.365 83.7641 153.333C83.7641 153.333 82.6189 140.177 77.4858 140.043C72.3527 139.908 72.6087 142.038 66.9636 140.353C61.3185 138.668 57.4249 135.756 56.0776 130.446Z" fill="#00A698"/>
<path d="M43.3187 201.911C42.4521 201.944 41.6037 202.169 40.8347 202.57C40.0657 202.971 39.3955 203.538 38.8727 204.23C36.8652 206.67 34.9925 213.085 37 219.96H64.0397" fill="#D1435B"/>
<path d="M103.556 69.28C103.556 69.28 103.906 72.0836 107.786 71.9757C111.666 71.8679 111.316 67.5143 111.316 67.5143C110.972 68.3186 110.438 69.0273 109.76 69.5791C109.082 70.131 108.279 70.5094 107.422 70.6818C106.711 70.8528 105.966 70.8111 105.279 70.5619C104.591 70.3126 103.992 69.8669 103.556 69.28Z" fill="#042759"/>
<path d="M119.535 67.5955C119.535 67.5955 119.885 70.4126 123.779 70.2913C127.672 70.17 127.308 65.7894 127.308 65.7894C126.975 66.6005 126.448 67.3179 125.774 67.8793C125.1 68.4407 124.3 68.8291 123.442 69.0108C122.724 69.1835 121.97 69.1414 121.276 68.8899C120.581 68.6383 119.976 68.1882 119.535 67.5955V67.5955Z" fill="#042759"/>
<path d="M203.012 99.0404C221.651 99.0404 236.761 83.9236 236.761 65.2761C236.761 46.6286 221.651 31.5118 203.012 31.5118C184.373 31.5118 169.263 46.6286 169.263 65.2761C169.263 83.9236 184.373 99.0404 203.012 99.0404Z" fill="#E1DDEC"/>
<path fill-rule="evenodd" clip-rule="evenodd" d="M227.29 66.584C227.235 67.1838 226.998 67.7524 226.61 68.2129C226.222 68.6733 225.702 69.0034 225.121 69.1584C223.901 69.5105 222.82 70.23 222.025 71.2189C221.229 72.2078 220.758 73.418 220.675 74.6847C220.783 76.0737 221.348 77.3876 222.282 78.4214C223.215 79.4553 224.464 80.1509 225.835 80.3997C226.226 80.4714 226.582 80.6724 226.846 80.9705C227.11 81.2686 227.266 81.6467 227.29 82.0441C227.29 82.4314 227.137 82.8031 226.864 83.0782C226.592 83.3534 226.222 83.5097 225.835 83.5133H180.202C180.005 83.5205 179.808 83.4879 179.624 83.4173C179.439 83.3467 179.271 83.2397 179.129 83.1025C178.987 82.9654 178.874 82.8009 178.797 82.6191C178.72 82.4372 178.68 82.2417 178.68 82.0441C178.704 81.6467 178.86 81.2686 179.124 80.9705C179.387 80.6724 179.744 80.4714 180.135 80.3997C181.527 80.1752 182.804 79.4903 183.762 78.4542C184.719 77.4182 185.302 76.091 185.416 74.6847C185.332 73.4163 184.859 72.2048 184.061 71.2157C183.262 70.2266 182.179 69.5081 180.957 69.1584C180.355 69.0228 179.812 68.7011 179.403 68.2391C178.994 67.777 178.741 67.1979 178.68 66.584V65.1148C178.73 64.5138 178.966 63.9432 179.355 63.4821C179.743 63.0209 180.266 62.6918 180.849 62.5404C182.07 62.1889 183.153 61.4699 183.951 60.4812C184.748 59.4925 185.223 58.2819 185.309 57.0141C185.202 55.6208 184.636 54.3023 183.7 53.2655C182.764 52.2288 181.51 51.5323 180.135 51.2856C179.745 51.2167 179.389 51.0184 179.125 50.7225C178.861 50.4266 178.704 50.0505 178.68 49.6547C178.674 49.4537 178.71 49.2538 178.785 49.0672C178.859 48.8806 178.971 48.7113 179.114 48.5698C179.257 48.4282 179.427 48.3175 179.614 48.2445C179.801 48.1714 180.002 48.1376 180.202 48.1451H225.835C226.224 48.1451 226.598 48.2998 226.873 48.5754C227.148 48.8509 227.303 49.2246 227.303 49.6142C227.287 50.0191 227.133 50.4062 226.865 50.7105C226.598 51.0148 226.234 51.2179 225.835 51.2856C224.462 51.535 223.211 52.2326 222.278 53.2692C221.344 54.3057 220.78 55.6227 220.675 57.0141C220.76 58.2802 221.232 59.4895 222.027 60.4781C222.823 61.4666 223.902 62.1866 225.121 62.5404C225.704 62.6918 226.226 63.0209 226.615 63.4821C227.003 63.9432 227.239 64.5138 227.29 65.1148V66.584ZM194.187 57.0141C194.187 56.4278 193.954 55.8656 193.54 55.451C193.126 55.0365 192.564 54.8036 191.978 54.8036C191.392 54.8036 190.83 55.0365 190.415 55.451C190.001 55.8656 189.768 56.4278 189.768 57.0141V63.6321C189.766 63.9229 189.822 64.2112 189.933 64.4802C190.043 64.7492 190.206 64.9936 190.411 65.1992C190.617 65.4048 190.861 65.5676 191.13 65.678C191.399 65.7885 191.687 65.8444 191.978 65.8427H198.606C199.161 65.7992 199.678 65.5482 200.056 65.1397C200.434 64.7312 200.643 64.1953 200.643 63.6389C200.643 63.0825 200.434 62.5465 200.056 62.138C199.678 61.7295 199.161 61.4785 198.606 61.4351H197.798C198.958 60.1369 200.581 59.3471 202.318 59.2362C204.055 59.1252 205.765 59.702 207.081 60.842C207.523 61.1226 208.052 61.2365 208.571 61.1634C209.09 61.0902 209.566 60.8347 209.914 60.4426C210.263 60.0505 210.46 59.5473 210.472 59.0229C210.483 58.4986 210.308 57.9872 209.977 57.5802C208.862 56.6096 207.563 55.873 206.158 55.4143C204.753 54.9555 203.27 54.7839 201.797 54.9096C200.324 55.0354 198.892 55.4559 197.584 56.1461C196.277 56.8364 195.122 57.7825 194.187 58.9281V57.0141ZM211.85 72.4742C211.826 72.7781 211.865 73.0836 211.965 73.3716C212.065 73.6596 212.224 73.9237 212.431 74.1475C212.637 74.3713 212.888 74.5499 213.167 74.672C213.447 74.7942 213.748 74.8572 214.053 74.8572C214.357 74.8572 214.659 74.7942 214.938 74.672C215.217 74.5499 215.468 74.3713 215.675 74.1475C215.882 73.9237 216.04 73.6596 216.14 73.3716C216.24 73.0836 216.279 72.7781 216.255 72.4742V65.8427C216.255 65.2564 216.023 64.6941 215.608 64.2796C215.194 63.865 214.632 63.6321 214.046 63.6321H207.431C206.845 63.6321 206.283 63.865 205.868 64.2796C205.454 64.6941 205.221 65.2564 205.221 65.8427C205.221 66.4289 205.454 66.9912 205.868 67.4057C206.283 67.8203 206.845 68.0532 207.431 68.0532H208.98C208.669 68.9391 208.172 69.7485 207.523 70.4276C206.875 71.1067 206.089 71.6399 205.219 71.9918C204.348 72.3437 203.413 72.5062 202.475 72.4685C201.537 72.4308 200.618 72.1939 199.778 71.7733C199.263 71.5166 198.783 71.195 198.35 70.8163C198.136 70.6035 197.881 70.4368 197.6 70.3265C197.319 70.2161 197.019 70.1645 196.718 70.1747C196.416 70.1849 196.12 70.2568 195.847 70.3859C195.575 70.515 195.331 70.6986 195.132 70.9254C194.933 71.1522 194.783 71.4174 194.69 71.7046C194.597 71.9918 194.564 72.295 194.593 72.5954C194.622 72.8958 194.712 73.1872 194.858 73.4514C195.003 73.7157 195.202 73.9474 195.44 74.1321C196.615 75.163 197.994 75.9332 199.487 76.3922C200.981 76.8511 202.555 76.9884 204.105 76.7948C205.655 76.6012 207.147 76.0813 208.482 75.2692C209.817 74.4571 210.965 73.3713 211.85 72.0833V72.4742Z" fill="#5A489B"/>
</svg>
